name rise30.2954peak35.7071fall66.7804.mot
datacolumns 19
datarows 30
range 2.76166300000000 2.80999600000000
endheader
time	ground_force1_vx	ground_force1_vy	ground_force1_vz	ground_force1_px	ground_force1_py	ground_force1_pz	ground_force2_vx	ground_force2_vy	ground_force2_vz	ground_force2_px	ground_force2_py	ground_force2_pz	ground_torque1_x	ground_torque1_y	ground_torque1_z	ground_torque2_x	ground_torque2_y	ground_torque2_z	
2.76166300000000	62.37394800000000	748.33070399999997	65.75567500000000	0.30564100000000	0.00000000000000	0.09298600000000	0.00000000000000	0.00000000000000	0.00000000000000	0.00000000000000	0.00000000000000	0.00000000000000	0.00000000000000	28.20223600000000	0.00000000000000	0.00000000000000	0.00000000000000	0.00000000000000	
2.76333000000000	61.87051900000000	750.62293899999997	65.87194200000000	0.30509800000000	0.00000000000000	0.09296300000000	0.00000000000000	0.00000000000000	0.00000000000000	0.00000000000000	0.00000000000000	0.00000000000000	0.00000000000000	28.24876700000000	0.00000000000000	0.00000000000000	0.00000000000000	0.00000000000000	
2.76499100000000	61.37712100000000	752.82338800000002	65.98115600000000	0.30458500000000	0.00000000000000	0.09293900000000	0.00000000000000	0.00000000000000	0.00000000000000	0.00000000000000	0.00000000000000	0.00000000000000	0.00000000000000	28.29305400000000	0.00000000000000	0.00000000000000	0.00000000000000	0.00000000000000	
2.76665900000000	60.89385600000000	754.93061899999998	66.08306800000000	0.30410100000000	0.00000000000000	0.09291300000000	0.00000000000000	0.00000000000000	0.00000000000000	0.00000000000000	0.00000000000000	0.00000000000000	0.00000000000000	28.33488400000000	0.00000000000000	0.00000000000000	0.00000000000000	0.00000000000000	
2.76833400000000	60.42074200000000	756.94322699999998	66.17738000000000	0.30364300000000	0.00000000000000	0.09288500000000	0.00000000000000	0.00000000000000	0.00000000000000	0.00000000000000	0.00000000000000	0.00000000000000	0.00000000000000	28.37401400000000	0.00000000000000	0.00000000000000	0.00000000000000	0.00000000000000	
2.76999700000000	59.95770900000000	758.85985000000005	66.26375200000000	0.30320800000000	0.00000000000000	0.09285700000000	0.00000000000000	0.00000000000000	0.00000000000000	0.00000000000000	0.00000000000000	0.00000000000000	0.00000000000000	28.41017400000000	0.00000000000000	0.00000000000000	0.00000000000000	0.00000000000000	
2.77165800000000	59.50461200000000	760.67917999999997	66.34180300000000	0.30279300000000	0.00000000000000	0.09282600000000	0.00000000000000	0.00000000000000	0.00000000000000	0.00000000000000	0.00000000000000	0.00000000000000	0.00000000000000	28.44306700000000	0.00000000000000	0.00000000000000	0.00000000000000	0.00000000000000	
2.77332300000000	59.06123100000000	762.39997300000005	66.41112000000000	0.30239700000000	0.00000000000000	0.09279500000000	0.00000000000000	0.00000000000000	0.00000000000000	0.00000000000000	0.00000000000000	0.00000000000000	0.00000000000000	28.47237700000000	0.00000000000000	0.00000000000000	0.00000000000000	0.00000000000000	
2.77499700000000	58.62727900000000	764.02106500000002	66.47126400000001	0.30201600000000	0.00000000000000	0.09276300000000	0.00000000000000	0.00000000000000	0.00000000000000	0.00000000000000	0.00000000000000	0.00000000000000	0.00000000000000	28.49777200000000	0.00000000000000	0.00000000000000	0.00000000000000	0.00000000000000	
2.77665800000000	58.20240800000000	765.54138100000000	66.52177300000000	0.30164700000000	0.00000000000000	0.09272900000000	0.00000000000000	0.00000000000000	0.00000000000000	0.00000000000000	0.00000000000000	0.00000000000000	0.00000000000000	28.51890300000000	0.00000000000000	0.00000000000000	0.00000000000000	0.00000000000000	
2.77832500000000	57.78621300000000	766.95994399999995	66.56217100000001	0.30128800000000	0.00000000000000	0.09269500000000	0.00000000000000	0.00000000000000	0.00000000000000	0.00000000000000	0.00000000000000	0.00000000000000	0.00000000000000	28.53541400000000	0.00000000000000	0.00000000000000	0.00000000000000	0.00000000000000	
2.77999700000000	57.37824100000000	768.27588700000001	66.59197300000000	0.30093500000000	0.00000000000000	0.09265900000000	0.00000000000000	0.00000000000000	0.00000000000000	0.00000000000000	0.00000000000000	0.00000000000000	0.00000000000000	28.54694400000000	0.00000000000000	0.00000000000000	0.00000000000000	0.00000000000000	
2.78165800000000	56.97799400000000	769.48846300000002	66.61069000000001	0.30058500000000	0.00000000000000	0.09262300000000	0.00000000000000	0.00000000000000	0.00000000000000	0.00000000000000	0.00000000000000	0.00000000000000	0.00000000000000	28.55312700000000	0.00000000000000	0.00000000000000	0.00000000000000	0.00000000000000	
2.78332600000000	56.58493800000000	770.59705199999996	66.61783500000000	0.30023700000000	0.00000000000000	0.09258600000000	0.00000000000000	0.00000000000000	0.00000000000000	0.00000000000000	0.00000000000000	0.00000000000000	0.00000000000000	28.55360200000000	0.00000000000000	0.00000000000000	0.00000000000000	0.00000000000000	
2.78499200000000	56.19850800000000	771.60116900000003	66.61292899999999	0.29988600000000	0.00000000000000	0.09254900000000	0.00000000000000	0.00000000000000	0.00000000000000	0.00000000000000	0.00000000000000	0.00000000000000	0.00000000000000	28.54801000000000	0.00000000000000	0.00000000000000	0.00000000000000	0.00000000000000	
2.78666700000000	55.81811400000000	772.50047300000006	66.59550700000000	0.29953000000000	0.00000000000000	0.09251000000000	0.00000000000000	0.00000000000000	0.00000000000000	0.00000000000000	0.00000000000000	0.00000000000000	0.00000000000000	28.53600300000000	0.00000000000000	0.00000000000000	0.00000000000000	0.00000000000000	
2.78832700000000	55.44314700000000	773.29476999999997	66.56512200000000	0.29916600000000	0.00000000000000	0.09247200000000	0.00000000000000	0.00000000000000	0.00000000000000	0.00000000000000	0.00000000000000	0.00000000000000	0.00000000000000	28.51724500000000	0.00000000000000	0.00000000000000	0.00000000000000	0.00000000000000	
2.78999700000000	55.07298600000000	773.98402399999998	66.52135100000000	0.29879100000000	0.00000000000000	0.09243300000000	0.00000000000000	0.00000000000000	0.00000000000000	0.00000000000000	0.00000000000000	0.00000000000000	0.00000000000000	28.49141600000000	0.00000000000000	0.00000000000000	0.00000000000000	0.00000000000000	
2.79166400000000	54.70700100000000	774.56835500000000	66.46379600000000	0.29840400000000	0.00000000000000	0.09239300000000	0.00000000000000	0.00000000000000	0.00000000000000	0.00000000000000	0.00000000000000	0.00000000000000	0.00000000000000	28.45821400000000	0.00000000000000	0.00000000000000	0.00000000000000	0.00000000000000	
2.79333100000000	54.34456200000000	775.04805099999999	66.39209600000000	0.29800000000000	0.00000000000000	0.09235300000000	0.00000000000000	0.00000000000000	0.00000000000000	0.00000000000000	0.00000000000000	0.00000000000000	0.00000000000000	28.41736000000000	0.00000000000000	0.00000000000000	0.00000000000000	0.00000000000000	
2.79499100000000	53.98504300000000	775.42356299999994	66.30592000000000	0.29757900000000	0.00000000000000	0.09231300000000	0.00000000000000	0.00000000000000	0.00000000000000	0.00000000000000	0.00000000000000	0.00000000000000	0.00000000000000	28.36859800000000	0.00000000000000	0.00000000000000	0.00000000000000	0.00000000000000	
2.79665700000000	53.62782800000000	775.69551500000000	66.20498200000000	0.29713700000000	0.00000000000000	0.09227300000000	0.00000000000000	0.00000000000000	0.00000000000000	0.00000000000000	0.00000000000000	0.00000000000000	0.00000000000000	28.31170100000000	0.00000000000000	0.00000000000000	0.00000000000000	0.00000000000000	
2.79833000000000	53.27231400000000	775.86469899999997	66.08903599999999	0.29667200000000	0.00000000000000	0.09223200000000	0.00000000000000	0.00000000000000	0.00000000000000	0.00000000000000	0.00000000000000	0.00000000000000	0.00000000000000	28.24646900000000	0.00000000000000	0.00000000000000	0.00000000000000	0.00000000000000	
2.79999200000000	52.91791500000000	775.93208100000004	65.95788000000000	0.29618200000000	0.00000000000000	0.09219200000000	0.00000000000000	0.00000000000000	0.00000000000000	0.00000000000000	0.00000000000000	0.00000000000000	0.00000000000000	28.17273600000000	0.00000000000000	0.00000000000000	0.00000000000000	0.00000000000000	
2.80165800000000	52.56407300000000	775.89879900000005	65.81136300000000	0.29566600000000	0.00000000000000	0.09215100000000	0.00000000000000	0.00000000000000	0.00000000000000	0.00000000000000	0.00000000000000	0.00000000000000	0.00000000000000	28.09036700000000	0.00000000000000	0.00000000000000	0.00000000000000	0.00000000000000	
2.80332700000000	52.21025100000000	775.76616200000001	65.64938200000000	0.29512200000000	0.00000000000000	0.09211100000000	0.00000000000000	0.00000000000000	0.00000000000000	0.00000000000000	0.00000000000000	0.00000000000000	0.00000000000000	27.99926200000000	0.00000000000000	0.00000000000000	0.00000000000000	0.00000000000000	
2.80499500000000	51.85594800000000	775.53564800000004	65.47188400000000	0.29454800000000	0.00000000000000	0.09207000000000	0.00000000000000	0.00000000000000	0.00000000000000	0.00000000000000	0.00000000000000	0.00000000000000	0.00000000000000	27.89935900000000	0.00000000000000	0.00000000000000	0.00000000000000	0.00000000000000	
2.80665800000000	51.50069500000000	775.20890399999996	65.27887000000000	0.29394200000000	0.00000000000000	0.09202900000000	0.00000000000000	0.00000000000000	0.00000000000000	0.00000000000000	0.00000000000000	0.00000000000000	0.00000000000000	27.79062900000000	0.00000000000000	0.00000000000000	0.00000000000000	0.00000000000000	
2.80832500000000	51.14405900000000	774.78774099999998	65.07039300000000	0.29330400000000	0.00000000000000	0.09198900000000	0.00000000000000	0.00000000000000	0.00000000000000	0.00000000000000	0.00000000000000	0.00000000000000	0.00000000000000	27.67308300000000	0.00000000000000	0.00000000000000	0.00000000000000	0.00000000000000	
2.80999600000000	50.78564900000000	774.27413400000000	64.84656099999999	0.29263300000000	0.00000000000000	0.09194900000000	0.00000000000000	0.00000000000000	0.00000000000000	0.00000000000000	0.00000000000000	0.00000000000000	0.00000000000000	27.54676700000000	0.00000000000000	0.00000000000000	0.00000000000000	0.00000000000000	
